<svg width="50" height="50" viewBox="0 0 50 50" fill="none" xmlns="http://www.w3.org/2000/svg">
<g clip-path="url(#clip0)">
<path d="M0.0106307 34.6954C0.0106307 41.2691 5.3393 46.5977 11.9128 46.5977C18.4865 46.5977 23.8152 41.2691 23.8152 34.6954C23.8152 28.1218 18.4865 22.7932 11.9128 22.7932C10.5619 22.7932 9.26869 23.0287 8.05806 23.4437C10.7366 8.08178 22.7159 -1.82494 11.6111 6.32849C-0.702497 15.3697 -0.00255716 34.3317 0.0112212 34.6792C0.0112212 34.6846 0.0106307 34.6894 0.0106307 34.6954Z" fill="white"/>
<path d="M26.1955 34.6954C26.1955 41.2691 31.5241 46.5977 38.0978 46.5977C44.6714 46.5977 50.0001 41.2691 50.0001 34.6954C50.0001 28.1218 44.6713 22.7932 38.0977 22.7932C36.7466 22.7932 35.4535 23.0287 34.2429 23.4437C36.9214 8.08178 48.9008 -1.82494 37.7959 6.32849C25.4823 15.3697 26.1822 34.3317 26.1961 34.6792C26.1961 34.6846 26.1955 34.6894 26.1955 34.6954Z" fill="white"/>
</g>
<defs>
<clipPath id="clip0">
<rect width="50" height="50" fill="white"/>
</clipPath>
</defs>
</svg>
