<svg width="100" height="100" viewBox="0 0 100 100" fill="none" xmlns="http://www.w3.org/2000/svg">
<g clip-path="url(#clip0)">
<path d="M25.7342 74.8688H97.0662V25.131H85.5131C84.703 25.131 84.0462 24.4743 84.0462 23.6641C84.0462 22.854 84.703 22.1972 85.5131 22.1972H98.5331C99.3432 22.1972 100 22.854 100 23.6641V76.3357C100 77.1458 99.3432 77.8026 98.5331 77.8026H85.7742L80.3091 89.587C79.9729 90.3121 79.0872 90.6375 78.3612 90.3005L73.0103 87.8191L56.7885 99.3933C56.1376 99.8576 55.206 99.7009 54.7423 99.0512L39.5814 77.8024H25.7339C24.9237 77.8024 24.2669 77.1456 24.2669 76.3355C24.2673 75.5255 24.9241 74.8688 25.7342 74.8688ZM82.5404 77.8026H58.3845L78.265 87.0221L82.5404 77.8026ZM56.2788 96.1532L69.9489 86.3995L51.4106 77.8026H43.1859L56.2788 96.1532Z" fill="#01BA93"/>
<path d="M1.46687 22.1972H14.2257L19.6907 10.4126C20.0265 9.68853 20.9131 9.36249 21.6386 9.69909L26.9895 12.1805L43.2111 0.606354C43.862 0.142417 44.7936 0.298497 45.2573 0.948635L60.4182 22.1974H79.6454C80.4555 22.1974 81.1123 22.8542 81.1123 23.6644C81.1123 24.4745 80.4555 25.1313 79.6454 25.1313H59.6652C59.6648 25.1313 59.6644 25.1315 59.664 25.1315C59.6634 25.1315 59.6628 25.1313 59.6624 25.1313H15.1669C15.1651 25.1313 15.1634 25.1317 15.1614 25.1317C15.1591 25.1317 15.1567 25.1313 15.1544 25.1313H2.93399V74.869H19.8667C20.677 74.869 21.3336 75.5258 21.3336 76.3359C21.3336 77.146 20.677 77.8028 19.8667 77.8028H1.46707C0.656742 77.8028 0.000149936 77.146 0.000149936 76.3359V23.6642C-4.56526e-05 22.854 0.656545 22.1972 1.46687 22.1972ZM17.4596 22.1972H41.6156L21.735 12.9778L17.4596 22.1972ZM43.721 3.84668L30.0508 13.6003L48.5892 22.1974H56.8139L43.721 3.84668Z" fill="#01BA93"/>
<path d="M50 64.0183C42.2801 64.0183 35.9997 57.7377 35.9997 50.018C35.9997 42.2983 42.2801 36.0178 50 36.0178C57.7197 36.0178 64.0002 42.2981 64.0002 50.018C64.0002 57.7377 57.7197 64.0183 50 64.0183ZM50 38.9516C43.898 38.9516 38.9336 43.9158 38.9336 50.018C38.9336 56.12 43.898 61.0845 50 61.0845C56.102 61.0845 61.0664 56.12 61.0664 50.018C61.0664 43.916 56.102 38.9516 50 38.9516Z" fill="#01BA93"/>
<path d="M62.4183 70.6136H17.7325C16.9221 70.6136 16.2655 69.9568 16.2655 69.1466C16.2655 65.4537 12.5415 61.8293 8.7475 61.8293C7.93717 61.8293 7.28058 61.1725 7.28058 60.3623V39.6362C7.28058 38.826 7.93717 38.1692 8.7475 38.1692C12.5415 38.1692 16.2655 34.5448 16.2655 30.8519C16.2655 30.0417 16.9221 29.3849 17.7325 29.3849H83.0655C83.8756 29.3849 84.5324 30.0417 84.5324 30.8519C84.5324 34.7709 87.6726 38.2084 91.2524 38.2084C92.0626 38.2084 92.7194 38.8651 92.7194 39.6753V60.3228C92.7194 61.133 92.0626 61.7897 91.2524 61.7897C87.6726 61.7897 84.5324 65.2274 84.5324 69.1462C84.5324 69.9564 83.8756 70.6132 83.0655 70.6132H68.286C67.4759 70.6132 66.8191 69.9564 66.8191 69.1462C66.8191 68.3361 67.4759 67.6793 68.286 67.6793H81.7077C82.0124 65.621 82.9454 63.6279 84.3695 62.0507C85.8726 60.3858 87.7571 59.3255 89.7857 58.9797V41.018C87.7573 40.6722 85.8728 39.6119 84.3695 37.9471C82.9454 36.37 82.0124 34.3768 81.7077 32.3184H19.0701C18.3302 36.5347 14.5154 40.2683 10.2144 40.9806V59.0169C14.5154 59.729 18.3302 63.4628 19.0701 67.6791H62.4183C63.2284 67.6791 63.8852 68.3359 63.8852 69.1461C63.8852 69.9568 63.2284 70.6136 62.4183 70.6136Z" fill="#01BA93"/>
</g>
<defs>
<clipPath id="clip0">
<rect width="100" height="100" transform="matrix(-1 0 0 1 100 0)" fill="white"/>
</clipPath>
</defs>
</svg>
