<svg width="100" height="100" viewBox="0 0 100 100" fill="none" xmlns="http://www.w3.org/2000/svg">
<path d="M45.0765 69.2017L43.7623 81.0201C43.6972 81.608 43.8863 82.198 44.281 82.6396C44.6757 83.081 45.2414 83.3334 45.8334 83.3334H54.1668C54.7588 83.3334 55.3244 83.081 55.7191 82.6396C56.1138 82.1982 56.3031 81.6082 56.2379 81.0201L54.9236 69.2017C57.0578 67.6494 58.3334 65.1937 58.3334 62.5C58.3334 57.9041 54.5961 54.1666 50 54.1666C45.4039 54.1666 41.6666 57.9041 41.6666 62.5C41.6666 65.1937 42.9424 67.6494 45.0765 69.2017ZM50 58.3334C52.2968 58.3334 54.1666 60.2031 54.1666 62.5C54.1666 64.0971 53.2592 65.5273 51.7984 66.2353C51.0029 66.6219 50.5371 67.4643 50.6347 68.341L51.8392 79.1666H48.1609L49.3654 68.341C49.4631 67.4641 48.9972 66.6219 48.2017 66.2353C46.741 65.5273 45.8336 64.0971 45.8336 62.5C45.8334 60.2031 47.7031 58.3334 50 58.3334Z" fill="#01BA93"/>
<path d="M85.4166 37.5H79.1666V29.1666C79.1666 13.084 66.0828 0 50 0C33.9172 0 20.8334 13.084 20.8334 29.1666V37.5H14.5834C13.4318 37.5 12.5 38.4318 12.5 39.5834V91.6668C12.5 96.2627 16.2373 100 20.8334 100H79.1668C83.7627 100 87.5 96.2627 87.5 91.6666V39.5834C87.5 38.4318 86.5682 37.5 85.4166 37.5ZM25 29.1666C25 15.3809 36.2143 4.1666 50 4.1666C63.7857 4.1666 75 15.3809 75 29.1666V37.5H70.8334V29.1666C70.8334 17.6797 61.4869 8.3332 50 8.3332C38.5131 8.3332 29.1666 17.6799 29.1666 29.1666V37.5H25V29.1666ZM66.6666 29.1666V37.5H33.3334V29.1666C33.3334 19.9768 40.8102 12.5 50 12.5C59.1898 12.5 66.6666 19.9768 66.6666 29.1666ZM83.3334 91.6666C83.3334 93.9635 81.4637 95.8332 79.1668 95.8332H20.8334C18.5365 95.8332 16.6668 93.9635 16.6668 91.6666V41.6666H83.3334V91.6666V91.6666Z" fill="#01BA93"/>
</svg>
