<svg width="100" height="100" viewBox="0 0 100 100" fill="none" xmlns="http://www.w3.org/2000/svg">
<path d="M85.9375 48.4375C86.8008 48.4375 87.5 49.1367 87.5 50C87.5 50.8633 86.8008 51.5625 85.9375 51.5625H82.8125C81.9492 51.5625 81.25 50.8633 81.25 50C81.25 49.1367 81.9492 48.4375 82.8125 48.4375H85.9375Z" fill="#01BA93"/>
<path d="M84.6153 16.1153C103.43 35.1309 103.266 65.8008 84.25 84.6153C65.2344 103.43 34.5645 103.266 15.75 84.25C15.627 84.1289 15.5059 84.0078 15.3848 83.8848C-3.42967 64.8692 -3.2656 34.1992 15.75 15.3848C34.7657 -3.42967 65.4356 -3.2656 84.25 15.75C84.3731 15.8711 84.4942 15.9922 84.6153 16.1153V16.1153ZM82.041 82.041C99.7364 64.3457 99.7364 35.6543 82.041 17.959C64.3457 0.263694 35.6543 0.263694 17.959 17.959C0.263694 35.6543 0.263694 64.3457 17.959 82.041C35.6543 99.7364 64.3457 99.7364 82.041 82.041Z" fill="#01BA93"/>
<path d="M79.832 20.17C96.3066 36.6465 96.3066 63.3575 79.8301 79.8321C63.3555 96.3087 36.6426 96.3087 20.168 79.8321C3.69336 63.3555 3.69336 36.6446 20.168 20.168C36.6445 3.69342 63.3574 3.69342 79.832 20.17ZM89.0625 50.0001C89.0625 28.461 71.5391 10.9376 50 10.9376C28.4609 10.9376 10.9375 28.461 10.9375 50.0001C10.9375 71.5391 28.4609 89.0626 50 89.0626C71.5391 89.0626 89.0625 71.5391 89.0625 50.0001Z" fill="#01BA93"/>
<path d="M76.5157 23.4824C77.127 24.0938 77.127 25.082 76.5176 25.6934L74.3067 27.9023C73.6973 28.5137 72.7071 28.5137 72.0977 27.9023C71.4864 27.293 71.4864 26.3027 72.0977 25.6934L74.3067 23.4844C74.9161 22.873 75.9063 22.873 76.5157 23.4824Z" fill="#01BA93"/>
<path d="M76.5156 74.3066C77.127 74.916 77.127 75.9062 76.5156 76.5156C75.9063 77.1269 74.916 77.1269 74.3067 76.5156L72.0977 74.3066C71.4864 73.6973 71.4864 72.707 72.0977 72.0977C72.7071 71.4863 73.6973 71.4863 74.3067 72.0977L76.5156 74.3066Z" fill="#01BA93"/>
<path d="M55.9395 28.752C56.457 29.4434 56.3164 30.4219 55.625 30.9395C54.9336 31.4571 53.9551 31.3165 53.4375 30.6251L51.5625 28.1251V43.7501C51.5625 43.8145 51.5566 43.8809 51.5488 43.9454H51.5508C52.1191 44.0918 52.666 44.3165 53.1719 44.6153C56.1465 46.3653 57.1367 50.1954 55.3867 53.17C53.6348 56.1426 49.8047 57.1348 46.8301 55.3829C43.8574 53.6329 42.8652 49.8028 44.6172 46.8282L41.082 43.293C40.4707 42.6817 40.4707 41.6934 41.082 41.0821C41.6934 40.4708 42.6816 40.4708 43.293 41.0821L46.8281 44.6172C47.334 44.3165 47.8789 44.0899 48.4492 43.9454H48.4512C48.4434 43.8809 48.4375 43.8145 48.4375 43.7501V28.1251L46.5625 30.6251C46.0449 31.3145 45.0645 31.4551 44.375 30.9375C43.6855 30.42 43.5449 29.4395 44.0625 28.7501L48.75 22.5C48.8379 22.3809 48.9434 22.2754 49.0625 22.1876C49.752 21.67 50.7324 21.8106 51.25 22.5L55.9375 28.7501L55.9395 28.752ZM51.6348 52.6641C53.1055 51.7618 53.5664 49.8379 52.6641 48.3672C51.7617 46.8946 49.8379 46.4336 48.3672 47.336L48.3652 47.3379C47.9473 47.5958 47.5957 47.9473 47.3379 48.3653L47.3359 48.3672C47.0352 48.8594 46.875 49.4239 46.875 50.0001C46.875 51.7247 48.2734 53.1251 50 53.1251C50.5762 53.1251 51.1426 52.9649 51.6348 52.6641V52.6641Z" fill="#01BA93"/>
<path d="M51.5625 82.8125V85.9375C51.5625 86.8008 50.8633 87.5 50 87.5C49.1367 87.5 48.4375 86.8008 48.4375 85.9375V82.8125C48.4375 81.9492 49.1367 81.25 50 81.25C50.8633 81.25 51.5625 81.9492 51.5625 82.8125Z" fill="#01BA93"/>
<path d="M51.5625 14.0625V17.1875C51.5625 18.0508 50.8633 18.75 50 18.75C49.1367 18.75 48.4375 18.0508 48.4375 17.1875V14.0625C48.4375 13.1992 49.1367 12.5 50 12.5C50.8633 12.5 51.5625 13.1992 51.5625 14.0625Z" fill="#01BA93"/>
<path d="M27.9023 25.6934C28.5137 26.3027 28.5137 27.293 27.9023 27.9023C27.293 28.5137 26.3027 28.5137 25.6934 27.9023L23.4844 25.6934C22.873 25.082 22.873 24.0938 23.4844 23.4824C24.0937 22.873 25.084 22.873 25.6934 23.4844L27.9023 25.6934Z" fill="#01BA93"/>
<path d="M27.9023 72.0977C28.5137 72.707 28.5137 73.6973 27.9023 74.3066L25.6934 76.5176C25.084 77.127 24.0937 77.127 23.4844 76.5176C22.873 75.9062 22.873 74.916 23.4844 74.3066L25.6934 72.0977C26.3027 71.4863 27.293 71.4863 27.9023 72.0977Z" fill="#01BA93"/>
<path d="M17.1875 48.4375C18.0508 48.4375 18.75 49.1367 18.75 50C18.75 50.8633 18.0508 51.5625 17.1875 51.5625H14.0625C13.1992 51.5625 12.5 50.8633 12.5 50C12.5 49.1367 13.1992 48.4375 14.0625 48.4375H17.1875Z" fill="#01BA93"/>
</svg>
