<svg width="930" height="346" viewBox="0 0 930 346" fill="none" xmlns="http://www.w3.org/2000/svg">
<g clip-path="url(#clip0)">
<path d="M186.697 123.151C184.634 123.151 182.962 124.823 182.962 126.886V212.795C182.962 214.858 181.29 216.53 179.227 216.53H141.876V160.502C141.876 154.314 136.859 149.297 130.67 149.297H93.3191C87.1308 149.297 82.1137 154.313 82.1137 160.502V216.53H44.7623C42.6994 216.53 41.0273 214.858 41.0273 212.795V126.886C41.0273 124.823 39.3553 123.151 37.2923 123.151C35.2294 123.151 33.5573 124.823 33.5573 126.886V212.795C33.5573 218.983 38.5739 224 44.7628 224H179.228C185.417 224 190.434 218.983 190.434 212.795V126.886C190.433 124.823 188.76 123.151 186.697 123.151ZM134.405 216.53H89.5837V160.502C89.5837 158.439 91.2558 156.767 93.3187 156.767H130.67C132.733 156.767 134.405 158.439 134.405 160.502V216.53H134.405Z" fill="white"/>
<path d="M210.24 96.2167L119.954 3.27497C115.546 -1.09166 108.443 -1.09166 104.035 3.27497L13.76 96.2167C10.5231 99.5534 9.60564 104.507 11.4331 108.782C13.1292 112.964 17.1986 115.696 21.7123 115.681H22.9896C25.661 115.655 28.2334 114.667 30.2359 112.898C30.5025 112.724 30.7524 112.527 30.9831 112.308L111.995 28.8571L193.066 112.353C193.282 112.558 193.516 112.744 193.765 112.909C195.766 114.671 198.333 115.654 201 115.681H202.277C206.794 115.7 210.87 112.968 212.567 108.782C214.394 104.507 213.477 99.5534 210.24 96.2167ZM205.687 105.876C205.132 107.276 203.783 108.199 202.277 108.21H201C200.011 108.211 199.066 107.805 198.385 107.09C198.359 107.06 198.318 107.052 198.292 107.026C198.266 107 198.24 106.959 198.206 106.933L114.672 20.8938L114.628 20.864L114.609 20.808C114.429 20.6644 114.235 20.5392 114.03 20.4346C113.836 20.2801 113.627 20.1462 113.406 20.035C113.177 19.961 112.94 19.9107 112.7 19.8857C112.252 19.7216 111.759 19.7216 111.311 19.8857C111.071 19.9111 110.835 19.961 110.605 20.035C110.384 20.1466 110.175 20.2806 109.981 20.4346C109.776 20.5392 109.582 20.6644 109.402 20.808L109.372 20.8526L109.328 20.8824L25.7761 106.933C25.7424 106.959 25.7275 106.996 25.6938 107.023C25.6601 107.049 25.6229 107.06 25.5966 107.09C24.9151 107.806 23.9701 108.211 22.9821 108.211H21.7123C20.2062 108.2 18.8576 107.276 18.3021 105.876C17.639 104.366 17.9563 102.604 19.1053 101.42H19.0974L109.38 8.482C110.068 7.78823 111.005 7.39778 111.983 7.39778C112.961 7.39778 113.898 7.78823 114.587 8.482L204.884 101.42C206.033 102.604 206.35 104.365 205.687 105.876Z" fill="white"/>
<path d="M126.935 130.621C133.123 130.621 138.14 125.604 138.14 119.416V93.2701C138.14 87.0812 133.123 82.0646 126.935 82.0646H97.0537C90.8653 82.0646 85.8482 87.0812 85.8482 93.2701V119.416C85.8482 125.604 90.8648 130.621 97.0537 130.621H126.935ZM93.3187 119.416V93.2701C93.3187 91.2071 94.9907 89.5351 97.0537 89.5351H126.935C128.998 89.5351 130.67 91.2076 130.67 93.2701V119.416C130.67 121.479 128.998 123.151 126.935 123.151H97.0537C94.9907 123.151 93.3187 121.478 93.3187 119.416Z" fill="white"/>
<path d="M100.789 182.913H97.0541C94.9912 182.913 93.3191 184.585 93.3191 186.648C93.3191 188.711 94.9912 190.383 97.0541 190.383H100.789C102.852 190.383 104.524 188.711 104.524 186.648C104.524 184.585 102.852 182.913 100.789 182.913Z" fill="white"/>
</g>
<path d="M193.277 131.055H215.494C219.14 131.055 222.395 131.364 225.26 131.982C228.157 132.568 230.598 133.561 232.584 134.961C234.602 136.328 236.132 138.135 237.174 140.381C238.248 142.594 238.785 145.312 238.785 148.535C238.785 150.618 238.46 152.49 237.809 154.15C237.158 155.778 236.295 157.227 235.221 158.496C234.179 159.733 232.991 160.807 231.656 161.719C230.322 162.598 228.954 163.314 227.555 163.867C229.15 164.355 230.745 165.007 232.34 165.82C233.935 166.634 235.351 167.692 236.588 168.994C237.825 170.264 238.834 171.842 239.615 173.73C240.396 175.618 240.787 177.881 240.787 180.518C240.787 182.471 240.543 184.261 240.055 185.889C239.599 187.516 238.997 188.981 238.248 190.283C237.532 191.553 236.734 192.676 235.855 193.652C235.009 194.596 234.195 195.361 233.414 195.947L233.463 195.898C231.38 197.396 228.938 198.454 226.139 199.072C223.372 199.691 220.523 200 217.594 200H193.277V131.055ZM202.896 159.912H215.104C216.699 159.912 218.31 159.782 219.938 159.521C221.598 159.261 223.079 158.757 224.381 158.008C225.715 157.259 226.79 156.201 227.604 154.834C228.45 153.434 228.873 151.611 228.873 149.365C228.873 147.184 228.482 145.443 227.701 144.141C226.92 142.806 225.878 141.797 224.576 141.113C223.274 140.43 221.777 139.99 220.084 139.795C218.391 139.567 216.633 139.453 214.811 139.453H202.896V159.912ZM202.896 168.408V191.699H217.105C221.565 191.699 224.951 190.69 227.262 188.672C229.605 186.621 230.777 183.675 230.777 179.834C230.777 178.174 230.517 176.66 229.996 175.293C229.475 173.893 228.645 172.689 227.506 171.68C226.399 170.638 224.983 169.84 223.258 169.287C221.533 168.701 219.465 168.408 217.057 168.408H202.896ZM265.201 200H256.119V157.275H248.697V150H265.201V200ZM266.08 132.764V141.162H255.24V132.764H266.08ZM318.131 195.947C317.089 196.566 315.982 197.184 314.811 197.803C313.671 198.389 312.385 198.91 310.953 199.365C309.521 199.821 307.91 200.195 306.119 200.488C304.361 200.781 302.359 200.928 300.113 200.928C296.695 200.928 293.603 200.358 290.836 199.219C288.102 198.079 285.758 196.419 283.805 194.238C281.884 192.025 280.403 189.323 279.361 186.133C278.32 182.91 277.799 179.232 277.799 175.098C277.799 171.647 278.222 168.359 279.068 165.234C279.915 162.109 281.201 159.359 282.926 156.982C284.684 154.606 286.913 152.718 289.615 151.318C292.317 149.886 295.523 149.17 299.234 149.17C302.75 149.17 305.777 149.788 308.316 151.025C310.855 152.262 312.939 153.939 314.566 156.055C316.227 158.138 317.447 160.596 318.229 163.428C319.01 166.227 319.4 169.206 319.4 172.363V176.416H286.881C286.913 178.662 287.158 180.843 287.613 182.959C288.102 185.042 288.867 186.898 289.908 188.525C290.95 190.12 292.317 191.406 294.01 192.383C295.702 193.327 297.802 193.799 300.309 193.799C303.303 193.799 306.005 193.424 308.414 192.676C310.855 191.927 313.167 190.869 315.348 189.502L318.131 195.947ZM299.039 156.299C297.477 156.299 296.012 156.543 294.645 157.031C293.31 157.487 292.122 158.219 291.08 159.229C290.071 160.205 289.225 161.458 288.541 162.988C287.89 164.486 287.451 166.276 287.223 168.359C287.19 168.522 287.174 168.75 287.174 169.043C287.174 169.336 287.174 169.645 287.174 169.971H309.83C309.765 168.18 309.553 166.455 309.195 164.795C308.837 163.135 308.251 161.686 307.438 160.449C306.624 159.18 305.533 158.171 304.166 157.422C302.799 156.673 301.09 156.299 299.039 156.299ZM366.031 200V167.773C366.031 164.095 365.12 161.263 363.297 159.277C361.507 157.292 358.967 156.299 355.68 156.299C351.741 156.299 348.648 157.666 346.402 160.4C344.189 163.102 343.082 167.057 343.082 172.266V200H333.854V157.275H326.432V150H342.398L342.887 157.324C343.863 155.99 344.856 154.818 345.865 153.809C346.874 152.767 347.981 151.904 349.186 151.221C350.39 150.537 351.708 150.016 353.141 149.658C354.573 149.3 356.168 149.121 357.926 149.121C359.716 149.121 361.604 149.398 363.59 149.951C365.608 150.472 367.464 151.416 369.156 152.783C370.882 154.118 372.298 155.924 373.404 158.203C374.544 160.482 375.113 163.379 375.113 166.895V200H366.031ZM427.506 195.947C426.464 196.566 425.357 197.184 424.186 197.803C423.046 198.389 421.76 198.91 420.328 199.365C418.896 199.821 417.285 200.195 415.494 200.488C413.736 200.781 411.734 200.928 409.488 200.928C406.07 200.928 402.978 200.358 400.211 199.219C397.477 198.079 395.133 196.419 393.18 194.238C391.259 192.025 389.778 189.323 388.736 186.133C387.695 182.91 387.174 179.232 387.174 175.098C387.174 171.647 387.597 168.359 388.443 165.234C389.29 162.109 390.576 159.359 392.301 156.982C394.059 154.606 396.288 152.718 398.99 151.318C401.692 149.886 404.898 149.17 408.609 149.17C412.125 149.17 415.152 149.788 417.691 151.025C420.23 152.262 422.314 153.939 423.941 156.055C425.602 158.138 426.822 160.596 427.604 163.428C428.385 166.227 428.775 169.206 428.775 172.363V176.416H396.256C396.288 178.662 396.533 180.843 396.988 182.959C397.477 185.042 398.242 186.898 399.283 188.525C400.325 190.12 401.692 191.406 403.385 192.383C405.077 193.327 407.177 193.799 409.684 193.799C412.678 193.799 415.38 193.424 417.789 192.676C420.23 191.927 422.542 190.869 424.723 189.502L427.506 195.947ZM408.414 156.299C406.852 156.299 405.387 156.543 404.02 157.031C402.685 157.487 401.497 158.219 400.455 159.229C399.446 160.205 398.6 161.458 397.916 162.988C397.265 164.486 396.826 166.276 396.598 168.359C396.565 168.522 396.549 168.75 396.549 169.043C396.549 169.336 396.549 169.645 396.549 169.971H419.205C419.14 168.18 418.928 166.455 418.57 164.795C418.212 163.135 417.626 161.686 416.812 160.449C415.999 159.18 414.908 158.171 413.541 157.422C412.174 156.673 410.465 156.299 408.414 156.299ZM440.201 189.209C441.178 189.958 442.252 190.625 443.424 191.211C444.596 191.764 445.816 192.236 447.086 192.627C448.355 193.018 449.641 193.311 450.943 193.506C452.278 193.701 453.564 193.799 454.801 193.799C456.135 193.799 457.405 193.652 458.609 193.359C459.814 193.066 460.855 192.611 461.734 191.992C462.646 191.374 463.362 190.609 463.883 189.697C464.436 188.753 464.713 187.663 464.713 186.426C464.713 185.547 464.55 184.766 464.225 184.082C463.899 183.366 463.329 182.682 462.516 182.031C461.734 181.38 460.644 180.745 459.244 180.127C457.877 179.476 456.152 178.76 454.068 177.979C451.757 177.132 449.641 176.286 447.721 175.439C445.833 174.593 444.205 173.633 442.838 172.559C441.503 171.452 440.462 170.15 439.713 168.652C438.964 167.122 438.59 165.267 438.59 163.086C438.59 160.742 439.078 158.691 440.055 156.934C441.031 155.176 442.333 153.727 443.961 152.588C445.621 151.449 447.525 150.602 449.674 150.049C451.822 149.463 454.052 149.17 456.363 149.17C459.293 149.17 462.223 149.609 465.152 150.488C468.115 151.367 470.816 152.686 473.258 154.443L470.279 160.693C469.205 160.01 468.082 159.408 466.91 158.887C465.738 158.333 464.55 157.878 463.346 157.52C462.141 157.129 460.953 156.836 459.781 156.641C458.642 156.413 457.568 156.299 456.559 156.299C455.289 156.299 454.085 156.429 452.945 156.689C451.839 156.95 450.862 157.34 450.016 157.861C449.202 158.35 448.551 158.984 448.062 159.766C447.574 160.514 447.33 161.377 447.33 162.354C447.33 163.265 447.558 164.095 448.014 164.844C448.469 165.592 449.12 166.292 449.967 166.943C450.846 167.562 451.904 168.164 453.141 168.75C454.41 169.336 455.842 169.906 457.438 170.459C460.4 171.533 462.923 172.591 465.006 173.633C467.089 174.674 468.782 175.781 470.084 176.953C471.386 178.125 472.33 179.427 472.916 180.859C473.502 182.259 473.795 183.887 473.795 185.742C473.795 188.346 473.225 190.609 472.086 192.529C470.979 194.45 469.514 196.029 467.691 197.266C465.868 198.503 463.785 199.414 461.441 200C459.098 200.618 456.689 200.928 454.215 200.928C451.09 200.928 448.144 200.521 445.377 199.707C442.643 198.861 439.957 197.559 437.32 195.801L440.201 189.209ZM486.979 200V131.055H508.121C511.116 131.055 514.046 131.348 516.91 131.934C519.775 132.52 522.314 133.512 524.527 134.912C526.773 136.312 528.58 138.167 529.947 140.479C531.314 142.79 531.998 145.654 531.998 149.072C531.998 151.286 531.705 153.288 531.119 155.078C530.533 156.836 529.687 158.431 528.58 159.863C527.506 161.263 526.188 162.484 524.625 163.525C523.062 164.567 521.305 165.462 519.352 166.211C521.956 166.829 524.007 167.627 525.504 168.604C527.034 169.548 528.222 170.719 529.068 172.119C529.947 173.486 530.566 175.081 530.924 176.904C531.314 178.695 531.673 180.745 531.998 183.057C532.324 185.335 532.714 187.891 533.17 190.723C533.626 193.522 534.374 196.615 535.416 200H525.162C524.479 196.452 523.941 193.262 523.551 190.43C523.193 187.565 522.818 185.042 522.428 182.861C522.037 180.648 521.565 178.76 521.012 177.197C520.491 175.602 519.726 174.3 518.717 173.291C517.708 172.282 516.406 171.549 514.811 171.094C513.215 170.605 511.165 170.361 508.658 170.361H496.549V200H486.979ZM496.5 163.135H507.828C509.814 163.135 511.669 162.907 513.395 162.451C515.12 161.995 516.617 161.263 517.887 160.254C519.189 159.245 520.198 157.926 520.914 156.299C521.663 154.639 522.037 152.62 522.037 150.244C522.037 147.77 521.565 145.817 520.621 144.385C519.677 142.952 518.456 141.878 516.959 141.162C515.462 140.413 513.785 139.958 511.93 139.795C510.107 139.6 508.316 139.502 506.559 139.502H496.5V163.135ZM547.379 155.127C548.681 154.248 550.081 153.451 551.578 152.734C553.108 152.018 554.671 151.4 556.266 150.879C557.893 150.326 559.521 149.902 561.148 149.609C562.776 149.316 564.355 149.17 565.885 149.17C568.229 149.17 570.442 149.479 572.525 150.098C574.641 150.684 576.48 151.628 578.043 152.93C579.638 154.199 580.891 155.843 581.803 157.861C582.714 159.88 583.17 162.321 583.17 165.186V185.303C583.17 187.516 583.219 189.518 583.316 191.309C583.414 193.099 583.544 194.645 583.707 195.947C583.87 197.477 584.065 198.828 584.293 200H576.041C575.943 199.447 575.846 198.421 575.748 196.924C575.683 195.426 575.618 193.75 575.553 191.895C574.479 193.717 573.307 195.215 572.037 196.387C570.768 197.526 569.449 198.438 568.082 199.121C566.715 199.805 565.315 200.277 563.883 200.537C562.451 200.798 561.035 200.928 559.635 200.928C557.193 200.928 554.98 200.602 552.994 199.951C551.008 199.268 549.316 198.291 547.916 197.021C546.549 195.752 545.491 194.222 544.742 192.432C543.993 190.641 543.619 188.623 543.619 186.377C543.619 185.303 543.733 184.163 543.961 182.959C544.221 181.755 544.628 180.566 545.182 179.395C545.735 178.223 546.467 177.1 547.379 176.025C548.29 174.951 549.413 173.991 550.748 173.145C552.18 172.233 553.759 171.533 555.484 171.045C557.21 170.524 558.984 170.15 560.807 169.922C562.662 169.661 564.518 169.515 566.373 169.482C568.229 169.417 570.019 169.385 571.744 169.385H574.381V165.771C574.381 163.981 574.153 162.484 573.697 161.279C573.242 160.042 572.607 159.066 571.793 158.35C570.979 157.601 570.035 157.064 568.961 156.738C567.887 156.413 566.747 156.25 565.543 156.25C564.208 156.25 562.825 156.413 561.393 156.738C559.96 157.031 558.561 157.422 557.193 157.91C555.826 158.398 554.524 158.936 553.287 159.521C552.083 160.107 551.008 160.693 550.064 161.279L547.379 155.127ZM571.402 189.746C572.021 189.03 572.509 188.232 572.867 187.354C573.258 186.475 573.551 185.482 573.746 184.375C573.974 183.268 574.12 182.031 574.186 180.664C574.283 179.297 574.332 177.751 574.332 176.025H572.916C570.67 176.025 568.342 176.107 565.934 176.27C563.557 176.432 561.36 176.855 559.342 177.539C557.356 178.223 555.712 179.281 554.41 180.713C553.141 182.113 552.506 184.049 552.506 186.523C552.506 187.435 552.652 188.33 552.945 189.209C553.238 190.055 553.694 190.82 554.312 191.504C554.964 192.188 555.761 192.741 556.705 193.164C557.682 193.587 558.854 193.799 560.221 193.799C562.564 193.799 564.729 193.457 566.715 192.773C568.701 192.09 570.263 191.081 571.402 189.746ZM609.83 200H600.748V157.275H593.326V150H609.83V200ZM610.709 132.764V141.162H599.869V132.764H610.709ZM659.684 195.752C657.177 197.51 654.492 198.812 651.627 199.658C648.795 200.505 646.077 200.928 643.473 200.928C640.771 200.928 638.15 200.423 635.611 199.414C633.072 198.405 630.826 196.826 628.873 194.678C626.92 192.529 625.341 189.795 624.137 186.475C622.965 183.154 622.379 179.167 622.379 174.512C622.379 170.182 623.03 166.439 624.332 163.281C625.634 160.091 627.327 157.454 629.41 155.371C631.493 153.288 633.837 151.742 636.441 150.732C639.078 149.691 641.715 149.17 644.352 149.17C646.207 149.17 648.03 149.414 649.82 149.902C651.643 150.391 653.32 151.172 654.85 152.246C656.38 153.32 657.714 154.72 658.854 156.445C659.993 158.171 660.823 160.27 661.344 162.744L653.58 164.014C653.222 162.549 652.734 161.328 652.115 160.352C651.497 159.342 650.781 158.545 649.967 157.959C649.153 157.34 648.274 156.917 647.33 156.689C646.419 156.429 645.475 156.299 644.498 156.299C642.936 156.299 641.373 156.641 639.811 157.324C638.281 158.008 636.881 159.082 635.611 160.547C634.374 162.012 633.365 163.867 632.584 166.113C631.803 168.359 631.412 171.045 631.412 174.17C631.412 177.262 631.656 180.029 632.145 182.471C632.633 184.88 633.398 186.93 634.439 188.623C635.514 190.283 636.865 191.569 638.492 192.48C640.12 193.359 642.057 193.799 644.303 193.799C645.67 193.799 646.956 193.685 648.16 193.457C649.397 193.197 650.536 192.871 651.578 192.48C652.62 192.057 653.58 191.585 654.459 191.064C655.338 190.544 656.152 190.007 656.9 189.453L659.684 195.752ZM709.635 195.947C708.593 196.566 707.486 197.184 706.314 197.803C705.175 198.389 703.889 198.91 702.457 199.365C701.025 199.821 699.413 200.195 697.623 200.488C695.865 200.781 693.863 200.928 691.617 200.928C688.199 200.928 685.107 200.358 682.34 199.219C679.605 198.079 677.262 196.419 675.309 194.238C673.388 192.025 671.907 189.323 670.865 186.133C669.824 182.91 669.303 179.232 669.303 175.098C669.303 171.647 669.726 168.359 670.572 165.234C671.419 162.109 672.704 159.359 674.43 156.982C676.188 154.606 678.417 152.718 681.119 151.318C683.821 149.886 687.027 149.17 690.738 149.17C694.254 149.17 697.281 149.788 699.82 151.025C702.359 152.262 704.443 153.939 706.07 156.055C707.73 158.138 708.951 160.596 709.732 163.428C710.514 166.227 710.904 169.206 710.904 172.363V176.416H678.385C678.417 178.662 678.661 180.843 679.117 182.959C679.605 185.042 680.37 186.898 681.412 188.525C682.454 190.12 683.821 191.406 685.514 192.383C687.206 193.327 689.306 193.799 691.812 193.799C694.807 193.799 697.509 193.424 699.918 192.676C702.359 191.927 704.671 190.869 706.852 189.502L709.635 195.947ZM690.543 156.299C688.98 156.299 687.516 156.543 686.148 157.031C684.814 157.487 683.626 158.219 682.584 159.229C681.575 160.205 680.729 161.458 680.045 162.988C679.394 164.486 678.954 166.276 678.727 168.359C678.694 168.522 678.678 168.75 678.678 169.043C678.678 169.336 678.678 169.645 678.678 169.971H701.334C701.269 168.18 701.057 166.455 700.699 164.795C700.341 163.135 699.755 161.686 698.941 160.449C698.128 159.18 697.037 158.171 695.67 157.422C694.303 156.673 692.594 156.299 690.543 156.299ZM722.33 189.209C723.307 189.958 724.381 190.625 725.553 191.211C726.725 191.764 727.945 192.236 729.215 192.627C730.484 193.018 731.77 193.311 733.072 193.506C734.407 193.701 735.693 193.799 736.93 193.799C738.264 193.799 739.534 193.652 740.738 193.359C741.943 193.066 742.984 192.611 743.863 191.992C744.775 191.374 745.491 190.609 746.012 189.697C746.565 188.753 746.842 187.663 746.842 186.426C746.842 185.547 746.679 184.766 746.354 184.082C746.028 183.366 745.458 182.682 744.645 182.031C743.863 181.38 742.773 180.745 741.373 180.127C740.006 179.476 738.281 178.76 736.197 177.979C733.886 177.132 731.77 176.286 729.85 175.439C727.962 174.593 726.334 173.633 724.967 172.559C723.632 171.452 722.59 170.15 721.842 168.652C721.093 167.122 720.719 165.267 720.719 163.086C720.719 160.742 721.207 158.691 722.184 156.934C723.16 155.176 724.462 153.727 726.09 152.588C727.75 151.449 729.654 150.602 731.803 150.049C733.951 149.463 736.181 149.17 738.492 149.17C741.422 149.17 744.352 149.609 747.281 150.488C750.243 151.367 752.945 152.686 755.387 154.443L752.408 160.693C751.334 160.01 750.211 159.408 749.039 158.887C747.867 158.333 746.679 157.878 745.475 157.52C744.27 157.129 743.082 156.836 741.91 156.641C740.771 156.413 739.697 156.299 738.688 156.299C737.418 156.299 736.214 156.429 735.074 156.689C733.967 156.95 732.991 157.34 732.145 157.861C731.331 158.35 730.68 158.984 730.191 159.766C729.703 160.514 729.459 161.377 729.459 162.354C729.459 163.265 729.687 164.095 730.143 164.844C730.598 165.592 731.249 166.292 732.096 166.943C732.975 167.562 734.033 168.164 735.27 168.75C736.539 169.336 737.971 169.906 739.566 170.459C742.529 171.533 745.051 172.591 747.135 173.633C749.218 174.674 750.911 175.781 752.213 176.953C753.515 178.125 754.459 179.427 755.045 180.859C755.631 182.259 755.924 183.887 755.924 185.742C755.924 188.346 755.354 190.609 754.215 192.529C753.108 194.45 751.643 196.029 749.82 197.266C747.997 198.503 745.914 199.414 743.57 200C741.227 200.618 738.818 200.928 736.344 200.928C733.219 200.928 730.273 200.521 727.506 199.707C724.771 198.861 722.086 197.559 719.449 195.801L722.33 189.209Z" fill="white"/>
<defs>
<clipPath id="clip0">
<rect width="224" height="224" fill="white"/>
</clipPath>
</defs>
</svg>
